<?xml version="1.0" encoding="UTF-8" standalone="no"?>
<!DOCTYPE svg PUBLIC "-//W3C//DTD SVG 1.1//EN"
 "http://www.w3.org/Graphics/SVG/1.1/DTD/svg11.dtd">
<!-- Generated by graphviz version 2.40.1 (20161225.0304)
 -->
<!-- Title: %3 Pages: 1 -->
<svg width="813pt" height="550pt"
 viewBox="0.00 0.00 813.12 550.00" xmlns="http://www.w3.org/2000/svg" xmlns:xlink="http://www.w3.org/1999/xlink">
<g id="graph0" class="graph" transform="scale(1 1) rotate(0) translate(4 546)">
<title>%3</title>
<polygon fill="#ffffff" stroke="transparent" points="-4,4 -4,-546 809.124,-546 809.124,4 -4,4"/>
<!-- artifact_c3f8274ce3ed36f205d245bd6d37b373b14479ea -->
<g id="node1" class="node">
<title>artifact_c3f8274ce3ed36f205d245bd6d37b373b14479ea</title>
<polygon fill="#add8e6" stroke="#000000" points="458.2858,-542 354.3383,-542 354.3383,-506 458.2858,-506 458.2858,-542"/>
<text text-anchor="middle" x="406.312" y="-526.8" font-family="Times,serif" font-size="14.00" fill="#000000">Main controller</text>
<text text-anchor="middle" x="406.312" y="-512.8" font-family="Times,serif" font-size="14.00" fill="#000000">(embedded)</text>
</g>
<!-- event_fc3d35f95817b12dc6ad6478f6c0df3ef4077c5f -->
<g id="node7" class="node">
<title>event_fc3d35f95817b12dc6ad6478f6c0df3ef4077c5f</title>
<ellipse fill="#ffff00" stroke="#000000" cx="406.312" cy="-444" rx="71.7202" ry="18"/>
<text text-anchor="middle" x="406.312" y="-439.8" font-family="Times,serif" font-size="14.00" fill="#000000">FireDocTemplate</text>
</g>
<!-- artifact_c3f8274ce3ed36f205d245bd6d37b373b14479ea&#45;&gt;event_fc3d35f95817b12dc6ad6478f6c0df3ef4077c5f -->
<g id="edge1" class="edge">
<title>artifact_c3f8274ce3ed36f205d245bd6d37b373b14479ea&#45;&gt;event_fc3d35f95817b12dc6ad6478f6c0df3ef4077c5f</title>
<path fill="none" stroke="#000000" d="M406.312,-505.8468C406.312,-495.9251 406.312,-483.4167 406.312,-472.2492"/>
<polygon fill="#000000" stroke="#000000" points="409.8121,-472.0814 406.312,-462.0814 402.8121,-472.0814 409.8121,-472.0814"/>
<text text-anchor="middle" x="414.978" y="-481.6" font-family="Times,serif" font-size="8.00" fill="#000000">emits</text>
</g>
<!-- artifact_d1bc59b1d3d20cbf4287317f48482c532f7b0d3f -->
<g id="node2" class="node">
<title>artifact_d1bc59b1d3d20cbf4287317f48482c532f7b0d3f</title>
<polygon fill="#add8e6" stroke="#000000" points="520.2739,-376 292.3501,-376 292.3501,-340 520.2739,-340 520.2739,-376"/>
<text text-anchor="middle" x="406.312" y="-360.8" font-family="Times,serif" font-size="14.00" fill="#000000">TheDocumentTemplate</text>
<text text-anchor="middle" x="406.312" y="-346.8" font-family="Times,serif" font-size="14.00" fill="#000000">CDSK_KRprt_CRDT_B43HepC.xml</text>
</g>
<!-- event_209986c0b7dabe0f29a7996d13344b489ff9f6cf -->
<g id="node8" class="node">
<title>event_209986c0b7dabe0f29a7996d13344b489ff9f6cf</title>
<ellipse fill="#ffff00" stroke="#000000" cx="406.312" cy="-270" rx="119.7796" ry="18"/>
<text text-anchor="middle" x="406.312" y="-265.8" font-family="Times,serif" font-size="14.00" fill="#000000">DocumentationCompleteEvent</text>
</g>
<!-- artifact_d1bc59b1d3d20cbf4287317f48482c532f7b0d3f&#45;&gt;event_209986c0b7dabe0f29a7996d13344b489ff9f6cf -->
<g id="edge2" class="edge">
<title>artifact_d1bc59b1d3d20cbf4287317f48482c532f7b0d3f&#45;&gt;event_209986c0b7dabe0f29a7996d13344b489ff9f6cf</title>
<path fill="none" stroke="#000000" d="M406.312,-339.7663C406.312,-327.8492 406.312,-312.0384 406.312,-298.4817"/>
<polygon fill="#000000" stroke="#000000" points="409.8121,-298.2103 406.312,-288.2103 402.8121,-298.2103 409.8121,-298.2103"/>
<text text-anchor="middle" x="420.0835" y="-315.6" font-family="Times,serif" font-size="8.00" fill="#000000">emits</text>
<text text-anchor="middle" x="420.0835" y="-307.6" font-family="Times,serif" font-size="8.00" fill="#000000">(always)</text>
</g>
<!-- artifact_46c04ad97d19ac1cc6d1044e8c6a36961c91e82d -->
<g id="node3" class="node">
<title>artifact_46c04ad97d19ac1cc6d1044e8c6a36961c91e82d</title>
<polygon fill="#add8e6" stroke="#000000" points="492.6832,-202 319.9409,-202 319.9409,-166 492.6832,-166 492.6832,-202"/>
<text text-anchor="middle" x="406.312" y="-186.8" font-family="Times,serif" font-size="14.00" fill="#000000">RouteOnTempleteComplete</text>
<text text-anchor="middle" x="406.312" y="-172.8" font-family="Times,serif" font-size="14.00" fill="#000000">(embedded)</text>
</g>
<!-- event_3d23b1c10c8db0c78d49e36f80a008f60cfb7ab8 -->
<g id="node9" class="node">
<title>event_3d23b1c10c8db0c78d49e36f80a008f60cfb7ab8</title>
<ellipse fill="#ffff00" stroke="#000000" cx="169.312" cy="-104" rx="94.1878" ry="18"/>
<text text-anchor="middle" x="169.312" y="-99.8" font-family="Times,serif" font-size="14.00" fill="#000000">FireLedipasvirOrderSet</text>
</g>
<!-- artifact_46c04ad97d19ac1cc6d1044e8c6a36961c91e82d&#45;&gt;event_3d23b1c10c8db0c78d49e36f80a008f60cfb7ab8 -->
<g id="edge3" class="edge">
<title>artifact_46c04ad97d19ac1cc6d1044e8c6a36961c91e82d&#45;&gt;event_3d23b1c10c8db0c78d49e36f80a008f60cfb7ab8</title>
<path fill="none" stroke="#000000" d="M352.8291,-165.9467C314.8197,-153.1165 263.8846,-135.9232 225.3194,-122.9054"/>
<polygon fill="#000000" stroke="#000000" points="226.3907,-119.5731 215.7965,-119.691 224.1519,-126.2055 226.3907,-119.5731"/>
<text text-anchor="middle" x="303.978" y="-141.6" font-family="Times,serif" font-size="8.00" fill="#000000">emits</text>
</g>
<!-- event_acdcbacdfb66a09547be6f4ecb253a9a769b0230 -->
<g id="node10" class="node">
<title>event_acdcbacdfb66a09547be6f4ecb253a9a769b0230</title>
<ellipse fill="#ffff00" stroke="#000000" cx="406.312" cy="-104" rx="85.9946" ry="18"/>
<text text-anchor="middle" x="406.312" y="-99.8" font-family="Times,serif" font-size="14.00" fill="#000000">FireElbasvirOrderSet</text>
</g>
<!-- artifact_46c04ad97d19ac1cc6d1044e8c6a36961c91e82d&#45;&gt;event_acdcbacdfb66a09547be6f4ecb253a9a769b0230 -->
<g id="edge4" class="edge">
<title>artifact_46c04ad97d19ac1cc6d1044e8c6a36961c91e82d&#45;&gt;event_acdcbacdfb66a09547be6f4ecb253a9a769b0230</title>
<path fill="none" stroke="#000000" d="M406.312,-165.8468C406.312,-155.9251 406.312,-143.4167 406.312,-132.2492"/>
<polygon fill="#000000" stroke="#000000" points="409.8121,-132.0814 406.312,-122.0814 402.8121,-132.0814 409.8121,-132.0814"/>
<text text-anchor="middle" x="414.978" y="-141.6" font-family="Times,serif" font-size="8.00" fill="#000000">emits</text>
</g>
<!-- event_3285fb299bd0bb858de677808f32a3201cb8e2be -->
<g id="node11" class="node">
<title>event_3285fb299bd0bb858de677808f32a3201cb8e2be</title>
<ellipse fill="#ffff00" stroke="#000000" cx="664.312" cy="-104" rx="140.9936" ry="18"/>
<text text-anchor="middle" x="664.312" y="-99.8" font-family="Times,serif" font-size="14.00" fill="#000000">FireGlecaprevirPibrentasvirOrderSet</text>
</g>
<!-- artifact_46c04ad97d19ac1cc6d1044e8c6a36961c91e82d&#45;&gt;event_3285fb299bd0bb858de677808f32a3201cb8e2be -->
<g id="edge5" class="edge">
<title>artifact_46c04ad97d19ac1cc6d1044e8c6a36961c91e82d&#45;&gt;event_3285fb299bd0bb858de677808f32a3201cb8e2be</title>
<path fill="none" stroke="#000000" d="M464.5339,-165.9467C504.9858,-153.4035 558.8864,-136.6901 600.5053,-123.785"/>
<polygon fill="#000000" stroke="#000000" points="601.7501,-127.0635 610.2648,-120.7588 599.6768,-120.3776 601.7501,-127.0635"/>
<text text-anchor="middle" x="551.978" y="-141.6" font-family="Times,serif" font-size="8.00" fill="#000000">emits</text>
</g>
<!-- artifact_e8b37574674dbb044713820a10b4e9f25bc9cded -->
<g id="node4" class="node">
<title>artifact_e8b37574674dbb044713820a10b4e9f25bc9cded</title>
<polygon fill="#add8e6" stroke="#000000" points="260.4363,-36 .1877,-36 .1877,0 260.4363,0 260.4363,-36"/>
<text text-anchor="middle" x="130.312" y="-20.8" font-family="Times,serif" font-size="14.00" fill="#000000">Ledipasvir/Sofosbuvir Order Set</text>
<text text-anchor="middle" x="130.312" y="-6.8" font-family="Times,serif" font-size="14.00" fill="#000000">CDSK_KRprt_OS_B29HepCLediSofo.xml</text>
</g>
<!-- artifact_d6eb7c627fbf6fbf86b9920866ae8c029d98ece8 -->
<g id="node5" class="node">
<title>artifact_d6eb7c627fbf6fbf86b9920866ae8c029d98ece8</title>
<polygon fill="#add8e6" stroke="#000000" points="533.9742,-36 278.6499,-36 278.6499,0 533.9742,0 533.9742,-36"/>
<text text-anchor="middle" x="406.312" y="-20.8" font-family="Times,serif" font-size="14.00" fill="#000000">The Elbasvir/Grazoprevir Order Set</text>
<text text-anchor="middle" x="406.312" y="-6.8" font-family="Times,serif" font-size="14.00" fill="#000000">CDSK_KRprt_OS_B28HepCElbGraz.xml</text>
</g>
<!-- artifact_c33ce008d4fbdeceee753236a2266b721e8af86b -->
<g id="node6" class="node">
<title>artifact_c33ce008d4fbdeceee753236a2266b721e8af86b</title>
<polygon fill="#add8e6" stroke="#000000" points="804.9363,-36 551.6877,-36 551.6877,0 804.9363,0 804.9363,-36"/>
<text text-anchor="middle" x="678.312" y="-20.8" font-family="Times,serif" font-size="14.00" fill="#000000">Glecaprevir/Pibrentasvir Order Set</text>
<text text-anchor="middle" x="678.312" y="-6.8" font-family="Times,serif" font-size="14.00" fill="#000000">CDSK_KRprt_OS_B30HepCGlecPib.xml</text>
</g>
<!-- event_fc3d35f95817b12dc6ad6478f6c0df3ef4077c5f&#45;&gt;artifact_d1bc59b1d3d20cbf4287317f48482c532f7b0d3f -->
<g id="edge6" class="edge">
<title>event_fc3d35f95817b12dc6ad6478f6c0df3ef4077c5f&#45;&gt;artifact_d1bc59b1d3d20cbf4287317f48482c532f7b0d3f</title>
<path fill="none" stroke="#000000" d="M406.312,-425.7616C406.312,-414.3597 406.312,-399.4342 406.312,-386.494"/>
<polygon fill="#000000" stroke="#000000" points="409.8121,-386.2121 406.312,-376.2121 402.8121,-386.2121 409.8121,-386.2121"/>
<text text-anchor="middle" x="427.6948" y="-396.8" font-family="Times,serif" font-size="14.00" fill="#000000">triggers</text>
</g>
<!-- event_209986c0b7dabe0f29a7996d13344b489ff9f6cf&#45;&gt;artifact_46c04ad97d19ac1cc6d1044e8c6a36961c91e82d -->
<g id="edge7" class="edge">
<title>event_209986c0b7dabe0f29a7996d13344b489ff9f6cf&#45;&gt;artifact_46c04ad97d19ac1cc6d1044e8c6a36961c91e82d</title>
<path fill="none" stroke="#000000" d="M406.312,-251.7616C406.312,-240.3597 406.312,-225.4342 406.312,-212.494"/>
<polygon fill="#000000" stroke="#000000" points="409.8121,-212.2121 406.312,-202.2121 402.8121,-212.2121 409.8121,-212.2121"/>
<text text-anchor="middle" x="427.6948" y="-222.8" font-family="Times,serif" font-size="14.00" fill="#000000">triggers</text>
</g>
<!-- event_3d23b1c10c8db0c78d49e36f80a008f60cfb7ab8&#45;&gt;artifact_e8b37574674dbb044713820a10b4e9f25bc9cded -->
<g id="edge8" class="edge">
<title>event_3d23b1c10c8db0c78d49e36f80a008f60cfb7ab8&#45;&gt;artifact_e8b37574674dbb044713820a10b4e9f25bc9cded</title>
<path fill="none" stroke="#000000" d="M161.0411,-85.7616C155.7153,-74.0176 148.6944,-58.5355 142.7081,-45.3349"/>
<polygon fill="#000000" stroke="#000000" points="145.8886,-43.8739 138.571,-36.2121 139.5135,-46.7649 145.8886,-43.8739"/>
<text text-anchor="middle" x="173.6948" y="-56.8" font-family="Times,serif" font-size="14.00" fill="#000000">triggers</text>
</g>
<!-- event_acdcbacdfb66a09547be6f4ecb253a9a769b0230&#45;&gt;artifact_d6eb7c627fbf6fbf86b9920866ae8c029d98ece8 -->
<g id="edge9" class="edge">
<title>event_acdcbacdfb66a09547be6f4ecb253a9a769b0230&#45;&gt;artifact_d6eb7c627fbf6fbf86b9920866ae8c029d98ece8</title>
<path fill="none" stroke="#000000" d="M406.312,-85.7616C406.312,-74.3597 406.312,-59.4342 406.312,-46.494"/>
<polygon fill="#000000" stroke="#000000" points="409.8121,-46.2121 406.312,-36.2121 402.8121,-46.2121 409.8121,-46.2121"/>
<text text-anchor="middle" x="427.6948" y="-56.8" font-family="Times,serif" font-size="14.00" fill="#000000">triggers</text>
</g>
<!-- event_3285fb299bd0bb858de677808f32a3201cb8e2be&#45;&gt;artifact_c33ce008d4fbdeceee753236a2266b721e8af86b -->
<g id="edge10" class="edge">
<title>event_3285fb299bd0bb858de677808f32a3201cb8e2be&#45;&gt;artifact_c33ce008d4fbdeceee753236a2266b721e8af86b</title>
<path fill="none" stroke="#000000" d="M667.2811,-85.7616C669.1557,-74.2456 671.6156,-59.1353 673.7366,-46.1064"/>
<polygon fill="#000000" stroke="#000000" points="677.1949,-46.6446 675.3473,-36.2121 670.2859,-45.5198 677.1949,-46.6446"/>
<text text-anchor="middle" x="693.6948" y="-56.8" font-family="Times,serif" font-size="14.00" fill="#000000">triggers</text>
</g>
</g>
</svg>
