<?xml version="1.0" encoding="UTF-8" standalone="no"?>
<!DOCTYPE svg PUBLIC "-//W3C//DTD SVG 1.1//EN"
 "http://www.w3.org/Graphics/SVG/1.1/DTD/svg11.dtd">
<!-- Generated by graphviz version 2.40.1 (20161225.0304)
 -->
<!-- Title: %3 Pages: 1 -->
<svg width="251pt" height="890pt"
 viewBox="0.00 0.00 250.61 890.00" xmlns="http://www.w3.org/2000/svg" xmlns:xlink="http://www.w3.org/1999/xlink">
<g id="graph0" class="graph" transform="scale(1 1) rotate(0) translate(4 886)">
<title>%3</title>
<polygon fill="#ffffff" stroke="transparent" points="-4,4 -4,-886 246.6113,-886 246.6113,4 -4,4"/>
<!-- artifact_c3f8274ce3ed36f205d245bd6d37b373b14479ea -->
<g id="node1" class="node">
<title>artifact_c3f8274ce3ed36f205d245bd6d37b373b14479ea</title>
<polygon fill="#add8e6" stroke="#000000" points="173.2794,-882 69.3319,-882 69.3319,-846 173.2794,-846 173.2794,-882"/>
<text text-anchor="middle" x="121.3057" y="-866.8" font-family="Times,serif" font-size="14.00" fill="#000000">Main controller</text>
<text text-anchor="middle" x="121.3057" y="-852.8" font-family="Times,serif" font-size="14.00" fill="#000000">(embedded)</text>
</g>
<!-- event_5da9f91d0997645cc56dc52c80ad9c09d5b25f65 -->
<g id="node7" class="node">
<title>event_5da9f91d0997645cc56dc52c80ad9c09d5b25f65</title>
<ellipse fill="#ffff00" stroke="#000000" cx="121.3057" cy="-784" rx="58.9841" ry="18"/>
<text text-anchor="middle" x="121.3057" y="-779.8" font-family="Times,serif" font-size="14.00" fill="#000000">FireECARule</text>
</g>
<!-- artifact_c3f8274ce3ed36f205d245bd6d37b373b14479ea&#45;&gt;event_5da9f91d0997645cc56dc52c80ad9c09d5b25f65 -->
<g id="edge1" class="edge">
<title>artifact_c3f8274ce3ed36f205d245bd6d37b373b14479ea&#45;&gt;event_5da9f91d0997645cc56dc52c80ad9c09d5b25f65</title>
<path fill="none" stroke="#000000" d="M121.3057,-845.8468C121.3057,-835.9251 121.3057,-823.4167 121.3057,-812.2492"/>
<polygon fill="#000000" stroke="#000000" points="124.8058,-812.0814 121.3057,-802.0814 117.8058,-812.0814 124.8058,-812.0814"/>
<text text-anchor="middle" x="129.9717" y="-821.6" font-family="Times,serif" font-size="8.00" fill="#000000">emits</text>
</g>
<!-- artifact_f10603b91add303609d55d4a65f9acfbcdfdf708 -->
<g id="node2" class="node">
<title>artifact_f10603b91add303609d55d4a65f9acfbcdfdf708</title>
<polygon fill="#add8e6" stroke="#000000" points="234.8584,-716 7.7529,-716 7.7529,-680 234.8584,-680 234.8584,-716"/>
<text text-anchor="middle" x="121.3057" y="-700.8" font-family="Times,serif" font-size="14.00" fill="#000000">TheECAScreeningRule</text>
<text text-anchor="middle" x="121.3057" y="-686.8" font-family="Times,serif" font-size="14.00" fill="#000000">CDSK_KRprt_ECA_B3Hypogly.xml</text>
</g>
<!-- event_0111b5585cc7c9c6033d2cc4f4fdd9772f4d7d55 -->
<g id="node8" class="node">
<title>event_0111b5585cc7c9c6033d2cc4f4fdd9772f4d7d55</title>
<ellipse fill="#ffff00" stroke="#000000" cx="121.3057" cy="-610" rx="78.7625" ry="18"/>
<text text-anchor="middle" x="121.3057" y="-605.8" font-family="Times,serif" font-size="14.00" fill="#000000">ECARuleComplete</text>
</g>
<!-- artifact_f10603b91add303609d55d4a65f9acfbcdfdf708&#45;&gt;event_0111b5585cc7c9c6033d2cc4f4fdd9772f4d7d55 -->
<g id="edge2" class="edge">
<title>artifact_f10603b91add303609d55d4a65f9acfbcdfdf708&#45;&gt;event_0111b5585cc7c9c6033d2cc4f4fdd9772f4d7d55</title>
<path fill="none" stroke="#000000" d="M121.3057,-679.7663C121.3057,-667.8492 121.3057,-652.0384 121.3057,-638.4817"/>
<polygon fill="#000000" stroke="#000000" points="124.8058,-638.2103 121.3057,-628.2103 117.8058,-638.2103 124.8058,-638.2103"/>
<text text-anchor="middle" x="135.0771" y="-655.6" font-family="Times,serif" font-size="8.00" fill="#000000">emits</text>
<text text-anchor="middle" x="135.0771" y="-647.6" font-family="Times,serif" font-size="8.00" fill="#000000">(always)</text>
</g>
<!-- artifact_5e45250ac5a6697ba3118fffab5dbdbdd60f2356 -->
<g id="node3" class="node">
<title>artifact_5e45250ac5a6697ba3118fffab5dbdbdd60f2356</title>
<polygon fill="#add8e6" stroke="#000000" points="186.2061,-542 56.4052,-542 56.4052,-506 186.2061,-506 186.2061,-542"/>
<text text-anchor="middle" x="121.3057" y="-526.8" font-family="Times,serif" font-size="14.00" fill="#000000">Screening controller</text>
<text text-anchor="middle" x="121.3057" y="-512.8" font-family="Times,serif" font-size="14.00" fill="#000000">(embedded)</text>
</g>
<!-- event_fc3d35f95817b12dc6ad6478f6c0df3ef4077c5f -->
<g id="node9" class="node">
<title>event_fc3d35f95817b12dc6ad6478f6c0df3ef4077c5f</title>
<ellipse fill="#ffff00" stroke="#000000" cx="121.3057" cy="-444" rx="71.7202" ry="18"/>
<text text-anchor="middle" x="121.3057" y="-439.8" font-family="Times,serif" font-size="14.00" fill="#000000">FireDocTemplate</text>
</g>
<!-- artifact_5e45250ac5a6697ba3118fffab5dbdbdd60f2356&#45;&gt;event_fc3d35f95817b12dc6ad6478f6c0df3ef4077c5f -->
<g id="edge3" class="edge">
<title>artifact_5e45250ac5a6697ba3118fffab5dbdbdd60f2356&#45;&gt;event_fc3d35f95817b12dc6ad6478f6c0df3ef4077c5f</title>
<path fill="none" stroke="#000000" d="M121.3057,-505.8468C121.3057,-495.9251 121.3057,-483.4167 121.3057,-472.2492"/>
<polygon fill="#000000" stroke="#000000" points="124.8058,-472.0814 121.3057,-462.0814 117.8058,-472.0814 124.8058,-472.0814"/>
<text text-anchor="middle" x="129.9717" y="-481.6" font-family="Times,serif" font-size="8.00" fill="#000000">emits</text>
</g>
<!-- artifact_d1bc59b1d3d20cbf4287317f48482c532f7b0d3f -->
<g id="node4" class="node">
<title>artifact_d1bc59b1d3d20cbf4287317f48482c532f7b0d3f</title>
<polygon fill="#add8e6" stroke="#000000" points="242.4173,-376 .194,-376 .194,-340 242.4173,-340 242.4173,-376"/>
<text text-anchor="middle" x="121.3057" y="-360.8" font-family="Times,serif" font-size="14.00" fill="#000000">TheDocumentTemplate</text>
<text text-anchor="middle" x="121.3057" y="-346.8" font-family="Times,serif" font-size="14.00" fill="#000000">CDSK_KRprt_SADT_B45Hypogly.xml</text>
</g>
<!-- event_209986c0b7dabe0f29a7996d13344b489ff9f6cf -->
<g id="node10" class="node">
<title>event_209986c0b7dabe0f29a7996d13344b489ff9f6cf</title>
<ellipse fill="#ffff00" stroke="#000000" cx="121.3057" cy="-270" rx="119.7796" ry="18"/>
<text text-anchor="middle" x="121.3057" y="-265.8" font-family="Times,serif" font-size="14.00" fill="#000000">DocumentationCompleteEvent</text>
</g>
<!-- artifact_d1bc59b1d3d20cbf4287317f48482c532f7b0d3f&#45;&gt;event_209986c0b7dabe0f29a7996d13344b489ff9f6cf -->
<g id="edge4" class="edge">
<title>artifact_d1bc59b1d3d20cbf4287317f48482c532f7b0d3f&#45;&gt;event_209986c0b7dabe0f29a7996d13344b489ff9f6cf</title>
<path fill="none" stroke="#000000" d="M121.3057,-339.7663C121.3057,-327.8492 121.3057,-312.0384 121.3057,-298.4817"/>
<polygon fill="#000000" stroke="#000000" points="124.8058,-298.2103 121.3057,-288.2103 117.8058,-298.2103 124.8058,-298.2103"/>
<text text-anchor="middle" x="135.0771" y="-315.6" font-family="Times,serif" font-size="8.00" fill="#000000">emits</text>
<text text-anchor="middle" x="135.0771" y="-307.6" font-family="Times,serif" font-size="8.00" fill="#000000">(always)</text>
</g>
<!-- artifact_46c04ad97d19ac1cc6d1044e8c6a36961c91e82d -->
<g id="node5" class="node">
<title>artifact_46c04ad97d19ac1cc6d1044e8c6a36961c91e82d</title>
<polygon fill="#add8e6" stroke="#000000" points="207.6768,-202 34.9345,-202 34.9345,-166 207.6768,-166 207.6768,-202"/>
<text text-anchor="middle" x="121.3057" y="-186.8" font-family="Times,serif" font-size="14.00" fill="#000000">RouteOnTempleteComplete</text>
<text text-anchor="middle" x="121.3057" y="-172.8" font-family="Times,serif" font-size="14.00" fill="#000000">(embedded)</text>
</g>
<!-- event_4a786a86ddb02f3241c7e33af5280344776fe54a -->
<g id="node11" class="node">
<title>event_4a786a86ddb02f3241c7e33af5280344776fe54a</title>
<ellipse fill="#ffff00" stroke="#000000" cx="121.3057" cy="-104" rx="56.0528" ry="18"/>
<text text-anchor="middle" x="121.3057" y="-99.8" font-family="Times,serif" font-size="14.00" fill="#000000">FireOrderSet</text>
</g>
<!-- artifact_46c04ad97d19ac1cc6d1044e8c6a36961c91e82d&#45;&gt;event_4a786a86ddb02f3241c7e33af5280344776fe54a -->
<g id="edge5" class="edge">
<title>artifact_46c04ad97d19ac1cc6d1044e8c6a36961c91e82d&#45;&gt;event_4a786a86ddb02f3241c7e33af5280344776fe54a</title>
<path fill="none" stroke="#000000" d="M121.3057,-165.8468C121.3057,-155.9251 121.3057,-143.4167 121.3057,-132.2492"/>
<polygon fill="#000000" stroke="#000000" points="124.8058,-132.0814 121.3057,-122.0814 117.8058,-132.0814 124.8058,-132.0814"/>
<text text-anchor="middle" x="129.9717" y="-141.6" font-family="Times,serif" font-size="8.00" fill="#000000">emits</text>
</g>
<!-- artifact_7c258a6f88066f39291e3443e14db9d394c313b2 -->
<g id="node6" class="node">
<title>artifact_7c258a6f88066f39291e3443e14db9d394c313b2</title>
<polygon fill="#add8e6" stroke="#000000" points="233.2549,-36 9.3564,-36 9.3564,0 233.2549,0 233.2549,-36"/>
<text text-anchor="middle" x="121.3057" y="-20.8" font-family="Times,serif" font-size="14.00" fill="#000000">TheOrderSet</text>
<text text-anchor="middle" x="121.3057" y="-6.8" font-family="Times,serif" font-size="14.00" fill="#000000">CDSK_KRprt_OS_B33Hypogly.xml</text>
</g>
<!-- event_5da9f91d0997645cc56dc52c80ad9c09d5b25f65&#45;&gt;artifact_f10603b91add303609d55d4a65f9acfbcdfdf708 -->
<g id="edge6" class="edge">
<title>event_5da9f91d0997645cc56dc52c80ad9c09d5b25f65&#45;&gt;artifact_f10603b91add303609d55d4a65f9acfbcdfdf708</title>
<path fill="none" stroke="#000000" d="M121.3057,-765.7616C121.3057,-754.3597 121.3057,-739.4342 121.3057,-726.494"/>
<polygon fill="#000000" stroke="#000000" points="124.8058,-726.2121 121.3057,-716.2121 117.8058,-726.2121 124.8058,-726.2121"/>
<text text-anchor="middle" x="142.6885" y="-736.8" font-family="Times,serif" font-size="14.00" fill="#000000">triggers</text>
</g>
<!-- event_0111b5585cc7c9c6033d2cc4f4fdd9772f4d7d55&#45;&gt;artifact_5e45250ac5a6697ba3118fffab5dbdbdd60f2356 -->
<g id="edge7" class="edge">
<title>event_0111b5585cc7c9c6033d2cc4f4fdd9772f4d7d55&#45;&gt;artifact_5e45250ac5a6697ba3118fffab5dbdbdd60f2356</title>
<path fill="none" stroke="#000000" d="M121.3057,-591.7616C121.3057,-580.3597 121.3057,-565.4342 121.3057,-552.494"/>
<polygon fill="#000000" stroke="#000000" points="124.8058,-552.2121 121.3057,-542.2121 117.8058,-552.2121 124.8058,-552.2121"/>
<text text-anchor="middle" x="142.6885" y="-562.8" font-family="Times,serif" font-size="14.00" fill="#000000">triggers</text>
</g>
<!-- event_fc3d35f95817b12dc6ad6478f6c0df3ef4077c5f&#45;&gt;artifact_d1bc59b1d3d20cbf4287317f48482c532f7b0d3f -->
<g id="edge8" class="edge">
<title>event_fc3d35f95817b12dc6ad6478f6c0df3ef4077c5f&#45;&gt;artifact_d1bc59b1d3d20cbf4287317f48482c532f7b0d3f</title>
<path fill="none" stroke="#000000" d="M121.3057,-425.7616C121.3057,-414.3597 121.3057,-399.4342 121.3057,-386.494"/>
<polygon fill="#000000" stroke="#000000" points="124.8058,-386.2121 121.3057,-376.2121 117.8058,-386.2121 124.8058,-386.2121"/>
<text text-anchor="middle" x="142.6885" y="-396.8" font-family="Times,serif" font-size="14.00" fill="#000000">triggers</text>
</g>
<!-- event_209986c0b7dabe0f29a7996d13344b489ff9f6cf&#45;&gt;artifact_46c04ad97d19ac1cc6d1044e8c6a36961c91e82d -->
<g id="edge9" class="edge">
<title>event_209986c0b7dabe0f29a7996d13344b489ff9f6cf&#45;&gt;artifact_46c04ad97d19ac1cc6d1044e8c6a36961c91e82d</title>
<path fill="none" stroke="#000000" d="M121.3057,-251.7616C121.3057,-240.3597 121.3057,-225.4342 121.3057,-212.494"/>
<polygon fill="#000000" stroke="#000000" points="124.8058,-212.2121 121.3057,-202.2121 117.8058,-212.2121 124.8058,-212.2121"/>
<text text-anchor="middle" x="142.6885" y="-222.8" font-family="Times,serif" font-size="14.00" fill="#000000">triggers</text>
</g>
<!-- event_4a786a86ddb02f3241c7e33af5280344776fe54a&#45;&gt;artifact_7c258a6f88066f39291e3443e14db9d394c313b2 -->
<g id="edge10" class="edge">
<title>event_4a786a86ddb02f3241c7e33af5280344776fe54a&#45;&gt;artifact_7c258a6f88066f39291e3443e14db9d394c313b2</title>
<path fill="none" stroke="#000000" d="M121.3057,-85.7616C121.3057,-74.3597 121.3057,-59.4342 121.3057,-46.494"/>
<polygon fill="#000000" stroke="#000000" points="124.8058,-46.2121 121.3057,-36.2121 117.8058,-46.2121 124.8058,-46.2121"/>
<text text-anchor="middle" x="142.6885" y="-56.8" font-family="Times,serif" font-size="14.00" fill="#000000">triggers</text>
</g>
</g>
</svg>
