<?xml version="1.0" encoding="UTF-8" standalone="no"?>
<!DOCTYPE svg PUBLIC "-//W3C//DTD SVG 1.1//EN"
 "http://www.w3.org/Graphics/SVG/1.1/DTD/svg11.dtd">
<!-- Generated by graphviz version 2.40.1 (20161225.0304)
 -->
<!-- Title: %3 Pages: 1 -->
<svg width="257pt" height="550pt"
 viewBox="0.00 0.00 256.96 550.00" xmlns="http://www.w3.org/2000/svg" xmlns:xlink="http://www.w3.org/1999/xlink">
<g id="graph0" class="graph" transform="scale(1 1) rotate(0) translate(4 546)">
<title>%3</title>
<polygon fill="#ffffff" stroke="transparent" points="-4,4 -4,-546 252.9551,-546 252.9551,4 -4,4"/>
<!-- artifact_c3f8274ce3ed36f205d245bd6d37b373b14479ea -->
<g id="node1" class="node">
<title>artifact_c3f8274ce3ed36f205d245bd6d37b373b14479ea</title>
<polygon fill="#add8e6" stroke="#000000" points="176.4513,-542 72.5038,-542 72.5038,-506 176.4513,-506 176.4513,-542"/>
<text text-anchor="middle" x="124.4775" y="-526.8" font-family="Times,serif" font-size="14.00" fill="#000000">Main controller</text>
<text text-anchor="middle" x="124.4775" y="-512.8" font-family="Times,serif" font-size="14.00" fill="#000000">(embedded)</text>
</g>
<!-- event_fc3d35f95817b12dc6ad6478f6c0df3ef4077c5f -->
<g id="node5" class="node">
<title>event_fc3d35f95817b12dc6ad6478f6c0df3ef4077c5f</title>
<ellipse fill="#ffff00" stroke="#000000" cx="124.4775" cy="-444" rx="71.7202" ry="18"/>
<text text-anchor="middle" x="124.4775" y="-439.8" font-family="Times,serif" font-size="14.00" fill="#000000">FireDocTemplate</text>
</g>
<!-- artifact_c3f8274ce3ed36f205d245bd6d37b373b14479ea&#45;&gt;event_fc3d35f95817b12dc6ad6478f6c0df3ef4077c5f -->
<g id="edge1" class="edge">
<title>artifact_c3f8274ce3ed36f205d245bd6d37b373b14479ea&#45;&gt;event_fc3d35f95817b12dc6ad6478f6c0df3ef4077c5f</title>
<path fill="none" stroke="#000000" d="M124.4775,-505.8468C124.4775,-495.9251 124.4775,-483.4167 124.4775,-472.2492"/>
<polygon fill="#000000" stroke="#000000" points="127.9776,-472.0814 124.4775,-462.0814 120.9776,-472.0814 127.9776,-472.0814"/>
<text text-anchor="middle" x="133.1436" y="-481.6" font-family="Times,serif" font-size="8.00" fill="#000000">emits</text>
</g>
<!-- artifact_d1bc59b1d3d20cbf4287317f48482c532f7b0d3f -->
<g id="node2" class="node">
<title>artifact_d1bc59b1d3d20cbf4287317f48482c532f7b0d3f</title>
<polygon fill="#add8e6" stroke="#000000" points="248.9326,-376 .0225,-376 .0225,-340 248.9326,-340 248.9326,-376"/>
<text text-anchor="middle" x="124.4775" y="-360.8" font-family="Times,serif" font-size="14.00" fill="#000000">TheDocumentTemplate</text>
<text text-anchor="middle" x="124.4775" y="-346.8" font-family="Times,serif" font-size="14.00" fill="#000000">CDSK_KRprt_CRDT_B39CervRadi.xml</text>
</g>
<!-- event_209986c0b7dabe0f29a7996d13344b489ff9f6cf -->
<g id="node6" class="node">
<title>event_209986c0b7dabe0f29a7996d13344b489ff9f6cf</title>
<ellipse fill="#ffff00" stroke="#000000" cx="124.4775" cy="-270" rx="119.7796" ry="18"/>
<text text-anchor="middle" x="124.4775" y="-265.8" font-family="Times,serif" font-size="14.00" fill="#000000">DocumentationCompleteEvent</text>
</g>
<!-- artifact_d1bc59b1d3d20cbf4287317f48482c532f7b0d3f&#45;&gt;event_209986c0b7dabe0f29a7996d13344b489ff9f6cf -->
<g id="edge2" class="edge">
<title>artifact_d1bc59b1d3d20cbf4287317f48482c532f7b0d3f&#45;&gt;event_209986c0b7dabe0f29a7996d13344b489ff9f6cf</title>
<path fill="none" stroke="#000000" d="M124.4775,-339.7663C124.4775,-327.8492 124.4775,-312.0384 124.4775,-298.4817"/>
<polygon fill="#000000" stroke="#000000" points="127.9776,-298.2103 124.4775,-288.2103 120.9776,-298.2103 127.9776,-298.2103"/>
<text text-anchor="middle" x="138.249" y="-315.6" font-family="Times,serif" font-size="8.00" fill="#000000">emits</text>
<text text-anchor="middle" x="138.249" y="-307.6" font-family="Times,serif" font-size="8.00" fill="#000000">(always)</text>
</g>
<!-- artifact_46c04ad97d19ac1cc6d1044e8c6a36961c91e82d -->
<g id="node3" class="node">
<title>artifact_46c04ad97d19ac1cc6d1044e8c6a36961c91e82d</title>
<polygon fill="#add8e6" stroke="#000000" points="210.8487,-202 38.1064,-202 38.1064,-166 210.8487,-166 210.8487,-202"/>
<text text-anchor="middle" x="124.4775" y="-186.8" font-family="Times,serif" font-size="14.00" fill="#000000">RouteOnTempleteComplete</text>
<text text-anchor="middle" x="124.4775" y="-172.8" font-family="Times,serif" font-size="14.00" fill="#000000">(embedded)</text>
</g>
<!-- event_4a786a86ddb02f3241c7e33af5280344776fe54a -->
<g id="node7" class="node">
<title>event_4a786a86ddb02f3241c7e33af5280344776fe54a</title>
<ellipse fill="#ffff00" stroke="#000000" cx="124.4775" cy="-104" rx="56.0528" ry="18"/>
<text text-anchor="middle" x="124.4775" y="-99.8" font-family="Times,serif" font-size="14.00" fill="#000000">FireOrderSet</text>
</g>
<!-- artifact_46c04ad97d19ac1cc6d1044e8c6a36961c91e82d&#45;&gt;event_4a786a86ddb02f3241c7e33af5280344776fe54a -->
<g id="edge3" class="edge">
<title>artifact_46c04ad97d19ac1cc6d1044e8c6a36961c91e82d&#45;&gt;event_4a786a86ddb02f3241c7e33af5280344776fe54a</title>
<path fill="none" stroke="#000000" d="M124.4775,-165.8468C124.4775,-155.9251 124.4775,-143.4167 124.4775,-132.2492"/>
<polygon fill="#000000" stroke="#000000" points="127.9776,-132.0814 124.4775,-122.0814 120.9776,-132.0814 127.9776,-132.0814"/>
<text text-anchor="middle" x="133.1436" y="-141.6" font-family="Times,serif" font-size="8.00" fill="#000000">emits</text>
</g>
<!-- artifact_7c258a6f88066f39291e3443e14db9d394c313b2 -->
<g id="node4" class="node">
<title>artifact_7c258a6f88066f39291e3443e14db9d394c313b2</title>
<polygon fill="#add8e6" stroke="#000000" points="238.9917,-36 9.9634,-36 9.9634,0 238.9917,0 238.9917,-36"/>
<text text-anchor="middle" x="124.4775" y="-20.8" font-family="Times,serif" font-size="14.00" fill="#000000">TheOrderSet</text>
<text text-anchor="middle" x="124.4775" y="-6.8" font-family="Times,serif" font-size="14.00" fill="#000000">CDSK_KRprt_OS_B15CervRadi.xml</text>
</g>
<!-- event_fc3d35f95817b12dc6ad6478f6c0df3ef4077c5f&#45;&gt;artifact_d1bc59b1d3d20cbf4287317f48482c532f7b0d3f -->
<g id="edge4" class="edge">
<title>event_fc3d35f95817b12dc6ad6478f6c0df3ef4077c5f&#45;&gt;artifact_d1bc59b1d3d20cbf4287317f48482c532f7b0d3f</title>
<path fill="none" stroke="#000000" d="M124.4775,-425.7616C124.4775,-414.3597 124.4775,-399.4342 124.4775,-386.494"/>
<polygon fill="#000000" stroke="#000000" points="127.9776,-386.2121 124.4775,-376.2121 120.9776,-386.2121 127.9776,-386.2121"/>
<text text-anchor="middle" x="145.8604" y="-396.8" font-family="Times,serif" font-size="14.00" fill="#000000">triggers</text>
</g>
<!-- event_209986c0b7dabe0f29a7996d13344b489ff9f6cf&#45;&gt;artifact_46c04ad97d19ac1cc6d1044e8c6a36961c91e82d -->
<g id="edge5" class="edge">
<title>event_209986c0b7dabe0f29a7996d13344b489ff9f6cf&#45;&gt;artifact_46c04ad97d19ac1cc6d1044e8c6a36961c91e82d</title>
<path fill="none" stroke="#000000" d="M124.4775,-251.7616C124.4775,-240.3597 124.4775,-225.4342 124.4775,-212.494"/>
<polygon fill="#000000" stroke="#000000" points="127.9776,-212.2121 124.4775,-202.2121 120.9776,-212.2121 127.9776,-212.2121"/>
<text text-anchor="middle" x="145.8604" y="-222.8" font-family="Times,serif" font-size="14.00" fill="#000000">triggers</text>
</g>
<!-- event_4a786a86ddb02f3241c7e33af5280344776fe54a&#45;&gt;artifact_7c258a6f88066f39291e3443e14db9d394c313b2 -->
<g id="edge6" class="edge">
<title>event_4a786a86ddb02f3241c7e33af5280344776fe54a&#45;&gt;artifact_7c258a6f88066f39291e3443e14db9d394c313b2</title>
<path fill="none" stroke="#000000" d="M124.4775,-85.7616C124.4775,-74.3597 124.4775,-59.4342 124.4775,-46.494"/>
<polygon fill="#000000" stroke="#000000" points="127.9776,-46.2121 124.4775,-36.2121 120.9776,-46.2121 127.9776,-46.2121"/>
<text text-anchor="middle" x="145.8604" y="-56.8" font-family="Times,serif" font-size="14.00" fill="#000000">triggers</text>
</g>
</g>
</svg>
