<?xml version="1.0" encoding="UTF-8" standalone="no"?>
<!DOCTYPE svg PUBLIC "-//W3C//DTD SVG 1.1//EN"
 "http://www.w3.org/Graphics/SVG/1.1/DTD/svg11.dtd">
<!-- Generated by graphviz version 2.40.1 (20161225.0304)
 -->
<!-- Title: %3 Pages: 1 -->
<svg width="247pt" height="890pt"
 viewBox="0.00 0.00 247.28 890.00" xmlns="http://www.w3.org/2000/svg" xmlns:xlink="http://www.w3.org/1999/xlink">
<g id="graph0" class="graph" transform="scale(1 1) rotate(0) translate(4 886)">
<title>%3</title>
<polygon fill="#ffffff" stroke="transparent" points="-4,4 -4,-886 243.2794,-886 243.2794,4 -4,4"/>
<!-- artifact_c3f8274ce3ed36f205d245bd6d37b373b14479ea -->
<g id="node1" class="node">
<title>artifact_c3f8274ce3ed36f205d245bd6d37b373b14479ea</title>
<polygon fill="#add8e6" stroke="#000000" points="171.6135,-882 67.666,-882 67.666,-846 171.6135,-846 171.6135,-882"/>
<text text-anchor="middle" x="119.6397" y="-866.8" font-family="Times,serif" font-size="14.00" fill="#000000">Main controller</text>
<text text-anchor="middle" x="119.6397" y="-852.8" font-family="Times,serif" font-size="14.00" fill="#000000">(embedded)</text>
</g>
<!-- event_5da9f91d0997645cc56dc52c80ad9c09d5b25f65 -->
<g id="node7" class="node">
<title>event_5da9f91d0997645cc56dc52c80ad9c09d5b25f65</title>
<ellipse fill="#ffff00" stroke="#000000" cx="119.6397" cy="-784" rx="58.9841" ry="18"/>
<text text-anchor="middle" x="119.6397" y="-779.8" font-family="Times,serif" font-size="14.00" fill="#000000">FireECARule</text>
</g>
<!-- artifact_c3f8274ce3ed36f205d245bd6d37b373b14479ea&#45;&gt;event_5da9f91d0997645cc56dc52c80ad9c09d5b25f65 -->
<g id="edge1" class="edge">
<title>artifact_c3f8274ce3ed36f205d245bd6d37b373b14479ea&#45;&gt;event_5da9f91d0997645cc56dc52c80ad9c09d5b25f65</title>
<path fill="none" stroke="#000000" d="M119.6397,-845.8468C119.6397,-835.9251 119.6397,-823.4167 119.6397,-812.2492"/>
<polygon fill="#000000" stroke="#000000" points="123.1398,-812.0814 119.6397,-802.0814 116.1398,-812.0814 123.1398,-812.0814"/>
<text text-anchor="middle" x="128.3057" y="-821.6" font-family="Times,serif" font-size="8.00" fill="#000000">emits</text>
</g>
<!-- artifact_42f15ecd6312e338631f4752477d15c619ce4116 -->
<g id="node2" class="node">
<title>artifact_42f15ecd6312e338631f4752477d15c619ce4116</title>
<polygon fill="#add8e6" stroke="#000000" points="224.9845,-716 14.2949,-716 14.2949,-680 224.9845,-680 224.9845,-716"/>
<text text-anchor="middle" x="119.6397" y="-700.8" font-family="Times,serif" font-size="14.00" fill="#000000">TheScreeningRules</text>
<text text-anchor="middle" x="119.6397" y="-686.8" font-family="Times,serif" font-size="14.00" fill="#000000">CDSK_KRprt_ECA_O9DxBI.xml</text>
</g>
<!-- event_0111b5585cc7c9c6033d2cc4f4fdd9772f4d7d55 -->
<g id="node8" class="node">
<title>event_0111b5585cc7c9c6033d2cc4f4fdd9772f4d7d55</title>
<ellipse fill="#ffff00" stroke="#000000" cx="119.6397" cy="-610" rx="78.7625" ry="18"/>
<text text-anchor="middle" x="119.6397" y="-605.8" font-family="Times,serif" font-size="14.00" fill="#000000">ECARuleComplete</text>
</g>
<!-- artifact_42f15ecd6312e338631f4752477d15c619ce4116&#45;&gt;event_0111b5585cc7c9c6033d2cc4f4fdd9772f4d7d55 -->
<g id="edge2" class="edge">
<title>artifact_42f15ecd6312e338631f4752477d15c619ce4116&#45;&gt;event_0111b5585cc7c9c6033d2cc4f4fdd9772f4d7d55</title>
<path fill="none" stroke="#000000" d="M119.6397,-679.7663C119.6397,-667.8492 119.6397,-652.0384 119.6397,-638.4817"/>
<polygon fill="#000000" stroke="#000000" points="123.1398,-638.2103 119.6397,-628.2103 116.1398,-638.2103 123.1398,-638.2103"/>
<text text-anchor="middle" x="133.4112" y="-655.6" font-family="Times,serif" font-size="8.00" fill="#000000">emits</text>
<text text-anchor="middle" x="133.4112" y="-647.6" font-family="Times,serif" font-size="8.00" fill="#000000">(always)</text>
</g>
<!-- artifact_5e45250ac5a6697ba3118fffab5dbdbdd60f2356 -->
<g id="node3" class="node">
<title>artifact_5e45250ac5a6697ba3118fffab5dbdbdd60f2356</title>
<polygon fill="#add8e6" stroke="#000000" points="184.5401,-542 54.7393,-542 54.7393,-506 184.5401,-506 184.5401,-542"/>
<text text-anchor="middle" x="119.6397" y="-526.8" font-family="Times,serif" font-size="14.00" fill="#000000">Screening controller</text>
<text text-anchor="middle" x="119.6397" y="-512.8" font-family="Times,serif" font-size="14.00" fill="#000000">(embedded)</text>
</g>
<!-- event_fc3d35f95817b12dc6ad6478f6c0df3ef4077c5f -->
<g id="node9" class="node">
<title>event_fc3d35f95817b12dc6ad6478f6c0df3ef4077c5f</title>
<ellipse fill="#ffff00" stroke="#000000" cx="119.6397" cy="-444" rx="71.7202" ry="18"/>
<text text-anchor="middle" x="119.6397" y="-439.8" font-family="Times,serif" font-size="14.00" fill="#000000">FireDocTemplate</text>
</g>
<!-- artifact_5e45250ac5a6697ba3118fffab5dbdbdd60f2356&#45;&gt;event_fc3d35f95817b12dc6ad6478f6c0df3ef4077c5f -->
<g id="edge3" class="edge">
<title>artifact_5e45250ac5a6697ba3118fffab5dbdbdd60f2356&#45;&gt;event_fc3d35f95817b12dc6ad6478f6c0df3ef4077c5f</title>
<path fill="none" stroke="#000000" d="M119.6397,-505.8468C119.6397,-495.9251 119.6397,-483.4167 119.6397,-472.2492"/>
<polygon fill="#000000" stroke="#000000" points="123.1398,-472.0814 119.6397,-462.0814 116.1398,-472.0814 123.1398,-472.0814"/>
<text text-anchor="middle" x="128.3057" y="-481.6" font-family="Times,serif" font-size="8.00" fill="#000000">emits</text>
</g>
<!-- artifact_d1bc59b1d3d20cbf4287317f48482c532f7b0d3f -->
<g id="node4" class="node">
<title>artifact_d1bc59b1d3d20cbf4287317f48482c532f7b0d3f</title>
<polygon fill="#add8e6" stroke="#000000" points="233.0502,-376 6.2292,-376 6.2292,-340 233.0502,-340 233.0502,-376"/>
<text text-anchor="middle" x="119.6397" y="-360.8" font-family="Times,serif" font-size="14.00" fill="#000000">TheDocumentTemplate</text>
<text text-anchor="middle" x="119.6397" y="-346.8" font-family="Times,serif" font-size="14.00" fill="#000000">CDSK_KRprt_CRDT_B44DxBI.xml</text>
</g>
<!-- event_209986c0b7dabe0f29a7996d13344b489ff9f6cf -->
<g id="node10" class="node">
<title>event_209986c0b7dabe0f29a7996d13344b489ff9f6cf</title>
<ellipse fill="#ffff00" stroke="#000000" cx="119.6397" cy="-270" rx="119.7796" ry="18"/>
<text text-anchor="middle" x="119.6397" y="-265.8" font-family="Times,serif" font-size="14.00" fill="#000000">DocumentationCompleteEvent</text>
</g>
<!-- artifact_d1bc59b1d3d20cbf4287317f48482c532f7b0d3f&#45;&gt;event_209986c0b7dabe0f29a7996d13344b489ff9f6cf -->
<g id="edge4" class="edge">
<title>artifact_d1bc59b1d3d20cbf4287317f48482c532f7b0d3f&#45;&gt;event_209986c0b7dabe0f29a7996d13344b489ff9f6cf</title>
<path fill="none" stroke="#000000" d="M119.6397,-339.7663C119.6397,-327.8492 119.6397,-312.0384 119.6397,-298.4817"/>
<polygon fill="#000000" stroke="#000000" points="123.1398,-298.2103 119.6397,-288.2103 116.1398,-298.2103 123.1398,-298.2103"/>
<text text-anchor="middle" x="133.4112" y="-315.6" font-family="Times,serif" font-size="8.00" fill="#000000">emits</text>
<text text-anchor="middle" x="133.4112" y="-307.6" font-family="Times,serif" font-size="8.00" fill="#000000">(always)</text>
</g>
<!-- artifact_46c04ad97d19ac1cc6d1044e8c6a36961c91e82d -->
<g id="node5" class="node">
<title>artifact_46c04ad97d19ac1cc6d1044e8c6a36961c91e82d</title>
<polygon fill="#add8e6" stroke="#000000" points="206.0109,-202 33.2686,-202 33.2686,-166 206.0109,-166 206.0109,-202"/>
<text text-anchor="middle" x="119.6397" y="-186.8" font-family="Times,serif" font-size="14.00" fill="#000000">RouteOnTempleteComplete</text>
<text text-anchor="middle" x="119.6397" y="-172.8" font-family="Times,serif" font-size="14.00" fill="#000000">(embedded)</text>
</g>
<!-- event_4a786a86ddb02f3241c7e33af5280344776fe54a -->
<g id="node11" class="node">
<title>event_4a786a86ddb02f3241c7e33af5280344776fe54a</title>
<ellipse fill="#ffff00" stroke="#000000" cx="119.6397" cy="-104" rx="56.0528" ry="18"/>
<text text-anchor="middle" x="119.6397" y="-99.8" font-family="Times,serif" font-size="14.00" fill="#000000">FireOrderSet</text>
</g>
<!-- artifact_46c04ad97d19ac1cc6d1044e8c6a36961c91e82d&#45;&gt;event_4a786a86ddb02f3241c7e33af5280344776fe54a -->
<g id="edge5" class="edge">
<title>artifact_46c04ad97d19ac1cc6d1044e8c6a36961c91e82d&#45;&gt;event_4a786a86ddb02f3241c7e33af5280344776fe54a</title>
<path fill="none" stroke="#000000" d="M119.6397,-165.8468C119.6397,-155.9251 119.6397,-143.4167 119.6397,-132.2492"/>
<polygon fill="#000000" stroke="#000000" points="123.1398,-132.0814 119.6397,-122.0814 116.1398,-132.0814 123.1398,-132.0814"/>
<text text-anchor="middle" x="128.3057" y="-141.6" font-family="Times,serif" font-size="8.00" fill="#000000">emits</text>
</g>
<!-- artifact_7c258a6f88066f39291e3443e14db9d394c313b2 -->
<g id="node6" class="node">
<title>artifact_7c258a6f88066f39291e3443e14db9d394c313b2</title>
<polygon fill="#add8e6" stroke="#000000" points="223.1085,-36 16.171,-36 16.171,0 223.1085,0 223.1085,-36"/>
<text text-anchor="middle" x="119.6397" y="-20.8" font-family="Times,serif" font-size="14.00" fill="#000000">TheOrderSet</text>
<text text-anchor="middle" x="119.6397" y="-6.8" font-family="Times,serif" font-size="14.00" fill="#000000">CDSK_KRprt_OS_B32DxBI.xml</text>
</g>
<!-- event_5da9f91d0997645cc56dc52c80ad9c09d5b25f65&#45;&gt;artifact_42f15ecd6312e338631f4752477d15c619ce4116 -->
<g id="edge6" class="edge">
<title>event_5da9f91d0997645cc56dc52c80ad9c09d5b25f65&#45;&gt;artifact_42f15ecd6312e338631f4752477d15c619ce4116</title>
<path fill="none" stroke="#000000" d="M119.6397,-765.7616C119.6397,-754.3597 119.6397,-739.4342 119.6397,-726.494"/>
<polygon fill="#000000" stroke="#000000" points="123.1398,-726.2121 119.6397,-716.2121 116.1398,-726.2121 123.1398,-726.2121"/>
<text text-anchor="middle" x="141.0225" y="-736.8" font-family="Times,serif" font-size="14.00" fill="#000000">triggers</text>
</g>
<!-- event_0111b5585cc7c9c6033d2cc4f4fdd9772f4d7d55&#45;&gt;artifact_5e45250ac5a6697ba3118fffab5dbdbdd60f2356 -->
<g id="edge7" class="edge">
<title>event_0111b5585cc7c9c6033d2cc4f4fdd9772f4d7d55&#45;&gt;artifact_5e45250ac5a6697ba3118fffab5dbdbdd60f2356</title>
<path fill="none" stroke="#000000" d="M119.6397,-591.7616C119.6397,-580.3597 119.6397,-565.4342 119.6397,-552.494"/>
<polygon fill="#000000" stroke="#000000" points="123.1398,-552.2121 119.6397,-542.2121 116.1398,-552.2121 123.1398,-552.2121"/>
<text text-anchor="middle" x="141.0225" y="-562.8" font-family="Times,serif" font-size="14.00" fill="#000000">triggers</text>
</g>
<!-- event_fc3d35f95817b12dc6ad6478f6c0df3ef4077c5f&#45;&gt;artifact_d1bc59b1d3d20cbf4287317f48482c532f7b0d3f -->
<g id="edge8" class="edge">
<title>event_fc3d35f95817b12dc6ad6478f6c0df3ef4077c5f&#45;&gt;artifact_d1bc59b1d3d20cbf4287317f48482c532f7b0d3f</title>
<path fill="none" stroke="#000000" d="M119.6397,-425.7616C119.6397,-414.3597 119.6397,-399.4342 119.6397,-386.494"/>
<polygon fill="#000000" stroke="#000000" points="123.1398,-386.2121 119.6397,-376.2121 116.1398,-386.2121 123.1398,-386.2121"/>
<text text-anchor="middle" x="141.0225" y="-396.8" font-family="Times,serif" font-size="14.00" fill="#000000">triggers</text>
</g>
<!-- event_209986c0b7dabe0f29a7996d13344b489ff9f6cf&#45;&gt;artifact_46c04ad97d19ac1cc6d1044e8c6a36961c91e82d -->
<g id="edge9" class="edge">
<title>event_209986c0b7dabe0f29a7996d13344b489ff9f6cf&#45;&gt;artifact_46c04ad97d19ac1cc6d1044e8c6a36961c91e82d</title>
<path fill="none" stroke="#000000" d="M119.6397,-251.7616C119.6397,-240.3597 119.6397,-225.4342 119.6397,-212.494"/>
<polygon fill="#000000" stroke="#000000" points="123.1398,-212.2121 119.6397,-202.2121 116.1398,-212.2121 123.1398,-212.2121"/>
<text text-anchor="middle" x="141.0225" y="-222.8" font-family="Times,serif" font-size="14.00" fill="#000000">triggers</text>
</g>
<!-- event_4a786a86ddb02f3241c7e33af5280344776fe54a&#45;&gt;artifact_7c258a6f88066f39291e3443e14db9d394c313b2 -->
<g id="edge10" class="edge">
<title>event_4a786a86ddb02f3241c7e33af5280344776fe54a&#45;&gt;artifact_7c258a6f88066f39291e3443e14db9d394c313b2</title>
<path fill="none" stroke="#000000" d="M119.6397,-85.7616C119.6397,-74.3597 119.6397,-59.4342 119.6397,-46.494"/>
<polygon fill="#000000" stroke="#000000" points="123.1398,-46.2121 119.6397,-36.2121 116.1398,-46.2121 123.1398,-46.2121"/>
<text text-anchor="middle" x="141.0225" y="-56.8" font-family="Times,serif" font-size="14.00" fill="#000000">triggers</text>
</g>
</g>
</svg>
