<?xml version="1.0" encoding="UTF-8" standalone="no"?>
<!DOCTYPE svg PUBLIC "-//W3C//DTD SVG 1.1//EN"
 "http://www.w3.org/Graphics/SVG/1.1/DTD/svg11.dtd">
<!-- Generated by graphviz version 2.40.1 (20161225.0304)
 -->
<!-- Title: %3 Pages: 1 -->
<svg width="289pt" height="726pt"
 viewBox="0.00 0.00 288.80 726.00" xmlns="http://www.w3.org/2000/svg" xmlns:xlink="http://www.w3.org/1999/xlink">
<g id="graph0" class="graph" transform="scale(1 1) rotate(0) translate(4 722)">
<title>%3</title>
<polygon fill="#ffffff" stroke="transparent" points="-4,4 -4,-722 284.7957,-722 284.7957,4 -4,4"/>
<!-- artifact_c3f8274ce3ed36f205d245bd6d37b373b14479ea -->
<g id="node1" class="node">
<title>artifact_c3f8274ce3ed36f205d245bd6d37b373b14479ea</title>
<polygon fill="#add8e6" stroke="#000000" points="193.6196,-718 89.6721,-718 89.6721,-682 193.6196,-682 193.6196,-718"/>
<text text-anchor="middle" x="141.6458" y="-702.8" font-family="Times,serif" font-size="14.00" fill="#000000">Main controller</text>
<text text-anchor="middle" x="141.6458" y="-688.8" font-family="Times,serif" font-size="14.00" fill="#000000">(embedded)</text>
</g>
<!-- event_053fec63af4b665630143861e8897275fe958042 -->
<g id="node6" class="node">
<title>event_053fec63af4b665630143861e8897275fe958042</title>
<ellipse fill="#ffff00" stroke="#000000" cx="84.6458" cy="-620" rx="84.7919" ry="18"/>
<text text-anchor="middle" x="84.6458" y="-615.8" font-family="Times,serif" font-size="14.00" fill="#000000">FireConsultTemplate</text>
</g>
<!-- artifact_c3f8274ce3ed36f205d245bd6d37b373b14479ea&#45;&gt;event_053fec63af4b665630143861e8897275fe958042 -->
<g id="edge1" class="edge">
<title>artifact_c3f8274ce3ed36f205d245bd6d37b373b14479ea&#45;&gt;event_053fec63af4b665630143861e8897275fe958042</title>
<path fill="none" stroke="#000000" d="M128.7117,-681.8468C121.2257,-671.3402 111.673,-657.9329 103.3767,-646.289"/>
<polygon fill="#000000" stroke="#000000" points="105.9858,-643.9191 97.3325,-637.8058 100.2848,-647.981 105.9858,-643.9191"/>
<text text-anchor="middle" x="124.3119" y="-657.6" font-family="Times,serif" font-size="8.00" fill="#000000">emits</text>
</g>
<!-- event_22d72d034a2368201b05e8df8d0a4383ca1ca776 -->
<g id="node7" class="node">
<title>event_22d72d034a2368201b05e8df8d0a4383ca1ca776</title>
<ellipse fill="#ffff00" stroke="#000000" cx="151.6458" cy="-444" rx="107.2441" ry="18"/>
<text text-anchor="middle" x="151.6458" y="-439.8" font-family="Times,serif" font-size="14.00" fill="#000000">ConsultInfoCompleteEvent</text>
</g>
<!-- artifact_c3f8274ce3ed36f205d245bd6d37b373b14479ea&#45;&gt;event_22d72d034a2368201b05e8df8d0a4383ca1ca776 -->
<g id="edge2" class="edge">
<title>artifact_c3f8274ce3ed36f205d245bd6d37b373b14479ea&#45;&gt;event_22d72d034a2368201b05e8df8d0a4383ca1ca776</title>
<path fill="none" stroke="#000000" d="M155.9937,-681.946C164.4011,-670.1786 174.2148,-654.0718 178.6458,-638 197.3732,-570.0748 184.6284,-547.8543 165.6458,-480 164.8667,-477.215 163.9528,-474.3467 162.9716,-471.5022"/>
<polygon fill="#000000" stroke="#000000" points="166.2351,-470.2361 159.4747,-462.0785 159.6724,-472.6715 166.2351,-470.2361"/>
<text text-anchor="middle" x="202.4173" y="-577.6" font-family="Times,serif" font-size="8.00" fill="#000000">emits</text>
<text text-anchor="middle" x="202.4173" y="-569.6" font-family="Times,serif" font-size="8.00" fill="#000000">(always)</text>
</g>
<!-- artifact_7dc48dd3b091b0d807335a2c221ee17dee68dfbe -->
<g id="node2" class="node">
<title>artifact_7dc48dd3b091b0d807335a2c221ee17dee68dfbe</title>
<polygon fill="#add8e6" stroke="#000000" points="162.8503,-550 48.4414,-550 48.4414,-514 162.8503,-514 162.8503,-550"/>
<text text-anchor="middle" x="105.6458" y="-534.8" font-family="Times,serif" font-size="14.00" fill="#000000">Consult Template</text>
<text text-anchor="middle" x="105.6458" y="-520.8" font-family="Times,serif" font-size="14.00" fill="#000000">(embedded)</text>
</g>
<!-- artifact_7dc48dd3b091b0d807335a2c221ee17dee68dfbe&#45;&gt;event_22d72d034a2368201b05e8df8d0a4383ca1ca776 -->
<g id="edge3" class="edge">
<title>artifact_7dc48dd3b091b0d807335a2c221ee17dee68dfbe&#45;&gt;event_22d72d034a2368201b05e8df8d0a4383ca1ca776</title>
<path fill="none" stroke="#000000" d="M115.1771,-513.7663C121.5915,-501.4952 130.164,-485.0957 137.3859,-471.2798"/>
<polygon fill="#000000" stroke="#000000" points="140.596,-472.694 142.1268,-462.2103 134.3924,-469.4512 140.596,-472.694"/>
<text text-anchor="middle" x="147.4173" y="-489.6" font-family="Times,serif" font-size="8.00" fill="#000000">emits</text>
<text text-anchor="middle" x="147.4173" y="-481.6" font-family="Times,serif" font-size="8.00" fill="#000000">(always)</text>
</g>
<!-- artifact_d1bc59b1d3d20cbf4287317f48482c532f7b0d3f -->
<g id="node3" class="node">
<title>artifact_d1bc59b1d3d20cbf4287317f48482c532f7b0d3f</title>
<polygon fill="#add8e6" stroke="#000000" points="280.9458,-376 22.3459,-376 22.3459,-340 280.9458,-340 280.9458,-376"/>
<text text-anchor="middle" x="151.6458" y="-360.8" font-family="Times,serif" font-size="14.00" fill="#000000">TheDocumentTemplate</text>
<text text-anchor="middle" x="151.6458" y="-346.8" font-family="Times,serif" font-size="14.00" fill="#000000">CDSK_KRprt_CRDT_B46DepConsul.xml</text>
</g>
<!-- event_209986c0b7dabe0f29a7996d13344b489ff9f6cf -->
<g id="node8" class="node">
<title>event_209986c0b7dabe0f29a7996d13344b489ff9f6cf</title>
<ellipse fill="#ffff00" stroke="#000000" cx="151.6458" cy="-270" rx="119.7796" ry="18"/>
<text text-anchor="middle" x="151.6458" y="-265.8" font-family="Times,serif" font-size="14.00" fill="#000000">DocumentationCompleteEvent</text>
</g>
<!-- artifact_d1bc59b1d3d20cbf4287317f48482c532f7b0d3f&#45;&gt;event_209986c0b7dabe0f29a7996d13344b489ff9f6cf -->
<g id="edge4" class="edge">
<title>artifact_d1bc59b1d3d20cbf4287317f48482c532f7b0d3f&#45;&gt;event_209986c0b7dabe0f29a7996d13344b489ff9f6cf</title>
<path fill="none" stroke="#000000" d="M151.6458,-339.7663C151.6458,-327.8492 151.6458,-312.0384 151.6458,-298.4817"/>
<polygon fill="#000000" stroke="#000000" points="155.1459,-298.2103 151.6458,-288.2103 148.1459,-298.2103 155.1459,-298.2103"/>
<text text-anchor="middle" x="165.4173" y="-315.6" font-family="Times,serif" font-size="8.00" fill="#000000">emits</text>
<text text-anchor="middle" x="165.4173" y="-307.6" font-family="Times,serif" font-size="8.00" fill="#000000">(always)</text>
</g>
<!-- artifact_46c04ad97d19ac1cc6d1044e8c6a36961c91e82d -->
<g id="node4" class="node">
<title>artifact_46c04ad97d19ac1cc6d1044e8c6a36961c91e82d</title>
<polygon fill="#add8e6" stroke="#000000" points="238.017,-202 65.2747,-202 65.2747,-166 238.017,-166 238.017,-202"/>
<text text-anchor="middle" x="151.6458" y="-186.8" font-family="Times,serif" font-size="14.00" fill="#000000">RouteOnTempleteComplete</text>
<text text-anchor="middle" x="151.6458" y="-172.8" font-family="Times,serif" font-size="14.00" fill="#000000">(embedded)</text>
</g>
<!-- event_4a786a86ddb02f3241c7e33af5280344776fe54a -->
<g id="node9" class="node">
<title>event_4a786a86ddb02f3241c7e33af5280344776fe54a</title>
<ellipse fill="#ffff00" stroke="#000000" cx="151.6458" cy="-104" rx="56.0528" ry="18"/>
<text text-anchor="middle" x="151.6458" y="-99.8" font-family="Times,serif" font-size="14.00" fill="#000000">FireOrderSet</text>
</g>
<!-- artifact_46c04ad97d19ac1cc6d1044e8c6a36961c91e82d&#45;&gt;event_4a786a86ddb02f3241c7e33af5280344776fe54a -->
<g id="edge5" class="edge">
<title>artifact_46c04ad97d19ac1cc6d1044e8c6a36961c91e82d&#45;&gt;event_4a786a86ddb02f3241c7e33af5280344776fe54a</title>
<path fill="none" stroke="#000000" d="M151.6458,-165.8468C151.6458,-155.9251 151.6458,-143.4167 151.6458,-132.2492"/>
<polygon fill="#000000" stroke="#000000" points="155.1459,-132.0814 151.6458,-122.0814 148.1459,-132.0814 155.1459,-132.0814"/>
<text text-anchor="middle" x="160.3119" y="-141.6" font-family="Times,serif" font-size="8.00" fill="#000000">emits</text>
</g>
<!-- artifact_7c258a6f88066f39291e3443e14db9d394c313b2 -->
<g id="node5" class="node">
<title>artifact_7c258a6f88066f39291e3443e14db9d394c313b2</title>
<polygon fill="#add8e6" stroke="#000000" points="271.0043,-36 32.2874,-36 32.2874,0 271.0043,0 271.0043,-36"/>
<text text-anchor="middle" x="151.6458" y="-20.8" font-family="Times,serif" font-size="14.00" fill="#000000">TheOrderSet</text>
<text text-anchor="middle" x="151.6458" y="-6.8" font-family="Times,serif" font-size="14.00" fill="#000000">CDSK_KRprt_OS_B34DepConsul.xml</text>
</g>
<!-- event_053fec63af4b665630143861e8897275fe958042&#45;&gt;artifact_7dc48dd3b091b0d807335a2c221ee17dee68dfbe -->
<g id="edge6" class="edge">
<title>event_053fec63af4b665630143861e8897275fe958042&#45;&gt;artifact_7dc48dd3b091b0d807335a2c221ee17dee68dfbe</title>
<path fill="none" stroke="#000000" d="M88.9971,-601.7663C91.8691,-589.7312 95.6888,-573.7249 98.945,-560.0797"/>
<polygon fill="#000000" stroke="#000000" points="102.3833,-560.7496 101.3002,-550.2103 95.5745,-559.1247 102.3833,-560.7496"/>
<text text-anchor="middle" x="119.0287" y="-571.8" font-family="Times,serif" font-size="14.00" fill="#000000">triggers</text>
</g>
<!-- event_22d72d034a2368201b05e8df8d0a4383ca1ca776&#45;&gt;artifact_d1bc59b1d3d20cbf4287317f48482c532f7b0d3f -->
<g id="edge7" class="edge">
<title>event_22d72d034a2368201b05e8df8d0a4383ca1ca776&#45;&gt;artifact_d1bc59b1d3d20cbf4287317f48482c532f7b0d3f</title>
<path fill="none" stroke="#000000" d="M151.6458,-425.7616C151.6458,-414.3597 151.6458,-399.4342 151.6458,-386.494"/>
<polygon fill="#000000" stroke="#000000" points="155.1459,-386.2121 151.6458,-376.2121 148.1459,-386.2121 155.1459,-386.2121"/>
<text text-anchor="middle" x="173.0287" y="-396.8" font-family="Times,serif" font-size="14.00" fill="#000000">triggers</text>
</g>
<!-- event_209986c0b7dabe0f29a7996d13344b489ff9f6cf&#45;&gt;artifact_46c04ad97d19ac1cc6d1044e8c6a36961c91e82d -->
<g id="edge8" class="edge">
<title>event_209986c0b7dabe0f29a7996d13344b489ff9f6cf&#45;&gt;artifact_46c04ad97d19ac1cc6d1044e8c6a36961c91e82d</title>
<path fill="none" stroke="#000000" d="M151.6458,-251.7616C151.6458,-240.3597 151.6458,-225.4342 151.6458,-212.494"/>
<polygon fill="#000000" stroke="#000000" points="155.1459,-212.2121 151.6458,-202.2121 148.1459,-212.2121 155.1459,-212.2121"/>
<text text-anchor="middle" x="173.0287" y="-222.8" font-family="Times,serif" font-size="14.00" fill="#000000">triggers</text>
</g>
<!-- event_4a786a86ddb02f3241c7e33af5280344776fe54a&#45;&gt;artifact_7c258a6f88066f39291e3443e14db9d394c313b2 -->
<g id="edge9" class="edge">
<title>event_4a786a86ddb02f3241c7e33af5280344776fe54a&#45;&gt;artifact_7c258a6f88066f39291e3443e14db9d394c313b2</title>
<path fill="none" stroke="#000000" d="M151.6458,-85.7616C151.6458,-74.3597 151.6458,-59.4342 151.6458,-46.494"/>
<polygon fill="#000000" stroke="#000000" points="155.1459,-46.2121 151.6458,-36.2121 148.1459,-46.2121 155.1459,-46.2121"/>
<text text-anchor="middle" x="173.0287" y="-56.8" font-family="Times,serif" font-size="14.00" fill="#000000">triggers</text>
</g>
</g>
</svg>
