<?xml version="1.0" encoding="UTF-8" standalone="no"?>
<!DOCTYPE svg PUBLIC "-//W3C//DTD SVG 1.1//EN"
 "http://www.w3.org/Graphics/SVG/1.1/DTD/svg11.dtd">
<!-- Generated by graphviz version 2.40.1 (20161225.0304)
 -->
<!-- Title: %3 Pages: 1 -->
<svg width="266pt" height="724pt"
 viewBox="0.00 0.00 266.30 724.00" xmlns="http://www.w3.org/2000/svg" xmlns:xlink="http://www.w3.org/1999/xlink">
<g id="graph0" class="graph" transform="scale(1 1) rotate(0) translate(4 720)">
<title>%3</title>
<polygon fill="#ffffff" stroke="transparent" points="-4,4 -4,-720 262.2998,-720 262.2998,4 -4,4"/>
<!-- artifact_c3f8274ce3ed36f205d245bd6d37b373b14479ea -->
<g id="node1" class="node">
<title>artifact_c3f8274ce3ed36f205d245bd6d37b373b14479ea</title>
<polygon fill="#add8e6" stroke="#000000" points="181.1236,-716 77.1762,-716 77.1762,-680 181.1236,-680 181.1236,-716"/>
<text text-anchor="middle" x="129.1499" y="-700.8" font-family="Times,serif" font-size="14.00" fill="#000000">Main controller</text>
<text text-anchor="middle" x="129.1499" y="-686.8" font-family="Times,serif" font-size="14.00" fill="#000000">(embedded)</text>
</g>
<!-- event_053fec63af4b665630143861e8897275fe958042 -->
<g id="node6" class="node">
<title>event_053fec63af4b665630143861e8897275fe958042</title>
<ellipse fill="#ffff00" stroke="#000000" cx="129.1499" cy="-618" rx="84.7919" ry="18"/>
<text text-anchor="middle" x="129.1499" y="-613.8" font-family="Times,serif" font-size="14.00" fill="#000000">FireConsultTemplate</text>
</g>
<!-- artifact_c3f8274ce3ed36f205d245bd6d37b373b14479ea&#45;&gt;event_053fec63af4b665630143861e8897275fe958042 -->
<g id="edge1" class="edge">
<title>artifact_c3f8274ce3ed36f205d245bd6d37b373b14479ea&#45;&gt;event_053fec63af4b665630143861e8897275fe958042</title>
<path fill="none" stroke="#000000" d="M129.1499,-679.8468C129.1499,-669.9251 129.1499,-657.4167 129.1499,-646.2492"/>
<polygon fill="#000000" stroke="#000000" points="132.65,-646.0814 129.1499,-636.0814 125.65,-646.0814 132.65,-646.0814"/>
<text text-anchor="middle" x="137.8159" y="-655.6" font-family="Times,serif" font-size="8.00" fill="#000000">emits</text>
</g>
<!-- artifact_7dc48dd3b091b0d807335a2c221ee17dee68dfbe -->
<g id="node2" class="node">
<title>artifact_7dc48dd3b091b0d807335a2c221ee17dee68dfbe</title>
<polygon fill="#add8e6" stroke="#000000" points="186.3544,-550 71.9454,-550 71.9454,-514 186.3544,-514 186.3544,-550"/>
<text text-anchor="middle" x="129.1499" y="-534.8" font-family="Times,serif" font-size="14.00" fill="#000000">Consult Template</text>
<text text-anchor="middle" x="129.1499" y="-520.8" font-family="Times,serif" font-size="14.00" fill="#000000">(embedded)</text>
</g>
<!-- event_22d72d034a2368201b05e8df8d0a4383ca1ca776 -->
<g id="node7" class="node">
<title>event_22d72d034a2368201b05e8df8d0a4383ca1ca776</title>
<ellipse fill="#ffff00" stroke="#000000" cx="129.1499" cy="-444" rx="107.2441" ry="18"/>
<text text-anchor="middle" x="129.1499" y="-439.8" font-family="Times,serif" font-size="14.00" fill="#000000">ConsultInfoCompleteEvent</text>
</g>
<!-- artifact_7dc48dd3b091b0d807335a2c221ee17dee68dfbe&#45;&gt;event_22d72d034a2368201b05e8df8d0a4383ca1ca776 -->
<g id="edge2" class="edge">
<title>artifact_7dc48dd3b091b0d807335a2c221ee17dee68dfbe&#45;&gt;event_22d72d034a2368201b05e8df8d0a4383ca1ca776</title>
<path fill="none" stroke="#000000" d="M129.1499,-513.7663C129.1499,-501.8492 129.1499,-486.0384 129.1499,-472.4817"/>
<polygon fill="#000000" stroke="#000000" points="132.65,-472.2103 129.1499,-462.2103 125.65,-472.2103 132.65,-472.2103"/>
<text text-anchor="middle" x="142.9214" y="-489.6" font-family="Times,serif" font-size="8.00" fill="#000000">emits</text>
<text text-anchor="middle" x="142.9214" y="-481.6" font-family="Times,serif" font-size="8.00" fill="#000000">(always)</text>
</g>
<!-- artifact_d1bc59b1d3d20cbf4287317f48482c532f7b0d3f -->
<g id="node3" class="node">
<title>artifact_d1bc59b1d3d20cbf4287317f48482c532f7b0d3f</title>
<polygon fill="#add8e6" stroke="#000000" points="258.4499,-376 -.1501,-376 -.1501,-340 258.4499,-340 258.4499,-376"/>
<text text-anchor="middle" x="129.1499" y="-360.8" font-family="Times,serif" font-size="14.00" fill="#000000">TheDocumentTemplate</text>
<text text-anchor="middle" x="129.1499" y="-346.8" font-family="Times,serif" font-size="14.00" fill="#000000">CDSK_KRprt_CRDT_B46DepConsul.xml</text>
</g>
<!-- event_209986c0b7dabe0f29a7996d13344b489ff9f6cf -->
<g id="node8" class="node">
<title>event_209986c0b7dabe0f29a7996d13344b489ff9f6cf</title>
<ellipse fill="#ffff00" stroke="#000000" cx="129.1499" cy="-270" rx="119.7796" ry="18"/>
<text text-anchor="middle" x="129.1499" y="-265.8" font-family="Times,serif" font-size="14.00" fill="#000000">DocumentationCompleteEvent</text>
</g>
<!-- artifact_d1bc59b1d3d20cbf4287317f48482c532f7b0d3f&#45;&gt;event_209986c0b7dabe0f29a7996d13344b489ff9f6cf -->
<g id="edge3" class="edge">
<title>artifact_d1bc59b1d3d20cbf4287317f48482c532f7b0d3f&#45;&gt;event_209986c0b7dabe0f29a7996d13344b489ff9f6cf</title>
<path fill="none" stroke="#000000" d="M129.1499,-339.7663C129.1499,-327.8492 129.1499,-312.0384 129.1499,-298.4817"/>
<polygon fill="#000000" stroke="#000000" points="132.65,-298.2103 129.1499,-288.2103 125.65,-298.2103 132.65,-298.2103"/>
<text text-anchor="middle" x="142.9214" y="-315.6" font-family="Times,serif" font-size="8.00" fill="#000000">emits</text>
<text text-anchor="middle" x="142.9214" y="-307.6" font-family="Times,serif" font-size="8.00" fill="#000000">(always)</text>
</g>
<!-- artifact_46c04ad97d19ac1cc6d1044e8c6a36961c91e82d -->
<g id="node4" class="node">
<title>artifact_46c04ad97d19ac1cc6d1044e8c6a36961c91e82d</title>
<polygon fill="#add8e6" stroke="#000000" points="215.521,-202 42.7788,-202 42.7788,-166 215.521,-166 215.521,-202"/>
<text text-anchor="middle" x="129.1499" y="-186.8" font-family="Times,serif" font-size="14.00" fill="#000000">RouteOnTempleteComplete</text>
<text text-anchor="middle" x="129.1499" y="-172.8" font-family="Times,serif" font-size="14.00" fill="#000000">(embedded)</text>
</g>
<!-- event_4a786a86ddb02f3241c7e33af5280344776fe54a -->
<g id="node9" class="node">
<title>event_4a786a86ddb02f3241c7e33af5280344776fe54a</title>
<ellipse fill="#ffff00" stroke="#000000" cx="129.1499" cy="-104" rx="56.0528" ry="18"/>
<text text-anchor="middle" x="129.1499" y="-99.8" font-family="Times,serif" font-size="14.00" fill="#000000">FireOrderSet</text>
</g>
<!-- artifact_46c04ad97d19ac1cc6d1044e8c6a36961c91e82d&#45;&gt;event_4a786a86ddb02f3241c7e33af5280344776fe54a -->
<g id="edge4" class="edge">
<title>artifact_46c04ad97d19ac1cc6d1044e8c6a36961c91e82d&#45;&gt;event_4a786a86ddb02f3241c7e33af5280344776fe54a</title>
<path fill="none" stroke="#000000" d="M129.1499,-165.8468C129.1499,-155.9251 129.1499,-143.4167 129.1499,-132.2492"/>
<polygon fill="#000000" stroke="#000000" points="132.65,-132.0814 129.1499,-122.0814 125.65,-132.0814 132.65,-132.0814"/>
<text text-anchor="middle" x="137.8159" y="-141.6" font-family="Times,serif" font-size="8.00" fill="#000000">emits</text>
</g>
<!-- artifact_7c258a6f88066f39291e3443e14db9d394c313b2 -->
<g id="node5" class="node">
<title>artifact_7c258a6f88066f39291e3443e14db9d394c313b2</title>
<polygon fill="#add8e6" stroke="#000000" points="248.5083,-36 9.7915,-36 9.7915,0 248.5083,0 248.5083,-36"/>
<text text-anchor="middle" x="129.1499" y="-20.8" font-family="Times,serif" font-size="14.00" fill="#000000">TheOrderSet</text>
<text text-anchor="middle" x="129.1499" y="-6.8" font-family="Times,serif" font-size="14.00" fill="#000000">CDSK_KRprt_OS_B34DepConsul.xml</text>
</g>
<!-- event_053fec63af4b665630143861e8897275fe958042&#45;&gt;artifact_7dc48dd3b091b0d807335a2c221ee17dee68dfbe -->
<g id="edge5" class="edge">
<title>event_053fec63af4b665630143861e8897275fe958042&#45;&gt;artifact_7dc48dd3b091b0d807335a2c221ee17dee68dfbe</title>
<path fill="none" stroke="#000000" d="M129.1499,-599.7616C129.1499,-588.3597 129.1499,-573.4342 129.1499,-560.494"/>
<polygon fill="#000000" stroke="#000000" points="132.65,-560.2121 129.1499,-550.2121 125.65,-560.2121 132.65,-560.2121"/>
<text text-anchor="middle" x="150.5327" y="-570.8" font-family="Times,serif" font-size="14.00" fill="#000000">triggers</text>
</g>
<!-- event_22d72d034a2368201b05e8df8d0a4383ca1ca776&#45;&gt;artifact_d1bc59b1d3d20cbf4287317f48482c532f7b0d3f -->
<g id="edge6" class="edge">
<title>event_22d72d034a2368201b05e8df8d0a4383ca1ca776&#45;&gt;artifact_d1bc59b1d3d20cbf4287317f48482c532f7b0d3f</title>
<path fill="none" stroke="#000000" d="M129.1499,-425.7616C129.1499,-414.3597 129.1499,-399.4342 129.1499,-386.494"/>
<polygon fill="#000000" stroke="#000000" points="132.65,-386.2121 129.1499,-376.2121 125.65,-386.2121 132.65,-386.2121"/>
<text text-anchor="middle" x="150.5327" y="-396.8" font-family="Times,serif" font-size="14.00" fill="#000000">triggers</text>
</g>
<!-- event_209986c0b7dabe0f29a7996d13344b489ff9f6cf&#45;&gt;artifact_46c04ad97d19ac1cc6d1044e8c6a36961c91e82d -->
<g id="edge7" class="edge">
<title>event_209986c0b7dabe0f29a7996d13344b489ff9f6cf&#45;&gt;artifact_46c04ad97d19ac1cc6d1044e8c6a36961c91e82d</title>
<path fill="none" stroke="#000000" d="M129.1499,-251.7616C129.1499,-240.3597 129.1499,-225.4342 129.1499,-212.494"/>
<polygon fill="#000000" stroke="#000000" points="132.65,-212.2121 129.1499,-202.2121 125.65,-212.2121 132.65,-212.2121"/>
<text text-anchor="middle" x="150.5327" y="-222.8" font-family="Times,serif" font-size="14.00" fill="#000000">triggers</text>
</g>
<!-- event_4a786a86ddb02f3241c7e33af5280344776fe54a&#45;&gt;artifact_7c258a6f88066f39291e3443e14db9d394c313b2 -->
<g id="edge8" class="edge">
<title>event_4a786a86ddb02f3241c7e33af5280344776fe54a&#45;&gt;artifact_7c258a6f88066f39291e3443e14db9d394c313b2</title>
<path fill="none" stroke="#000000" d="M129.1499,-85.7616C129.1499,-74.3597 129.1499,-59.4342 129.1499,-46.494"/>
<polygon fill="#000000" stroke="#000000" points="132.65,-46.2121 129.1499,-36.2121 125.65,-46.2121 132.65,-46.2121"/>
<text text-anchor="middle" x="150.5327" y="-56.8" font-family="Times,serif" font-size="14.00" fill="#000000">triggers</text>
</g>
</g>
</svg>
